<?xml version="1.0" encoding="utf-8"?>
<!-- Generator: Adobe Illustrator 21.0.0, SVG Export Plug-In . SVG Version: 6.00 Build 0)  -->
<svg version="1.1" id="Layer_1" xmlns="http://www.w3.org/2000/svg" xmlns:xlink="http://www.w3.org/1999/xlink" x="0px" y="0px"
	 viewBox="0 0 528 361" style="enable-background:new 0 0 528 361;" xml:space="preserve">
<style type="text/css">
	.st0{
		fill:none;stroke:white;
		stroke-width: 2;
		stroke-dasharray: 200;
		stroke-dashoffset: 20;
		stroke-miterlimit:10;
		-webkit-animation: animacion 5s forwards;
		-moz-animation: animacion 5s forwards;
		-o-animation: animacion 5s forwards;
		animation: animacion 5s forwards;
	}
	@-webkit-keyframes animacion{
		from{
			stroke-dashoffset: 3500;
			}
		to{
			stroke-dashoffset: 0;
		}
	}
	@keyframes animacion{
		from{
			stroke-dashoffset: 3500;
			}
		to{
			stroke-dashoffset: 0;
		}	
	}
	.st1{
		fill:transparent;
		-webkit-animation: relleno 4s forwards 4s;
		-moz-animation: relleno 4s forwards 4s;
		-o-animation: relleno 4s forwards 4s;
		animation: relleno 4s forwards 4s;}
	@-webkit-keyframes relleno{
		from{
			fill: transparent;
			}
		to{
			fill: white;
		}
	}
	@keyframes relleno{
		from{
			fill: transparent;
			}
		to{
			fill: white;
		}
	}
</style>
<g id="borde3">
	<path class="st0" d="M179.2,122.6c-1.3,0.2-2.5,0-3.7-0.4c-2.4-0.4-5.6-0.9-9.6-1.4c-3.9-0.5-8.1-0.9-12.6-1.2
		c-4.5-0.3-9-0.6-13.6-0.8c-4.6-0.2-8.8-0.3-12.5-0.3c-6.8,6.6-13.3,14.1-19.7,22.4c-6.4,8.3-12.1,16.5-17.2,24.4
		c4.4-0.3,9.3-0.6,14.5-0.8s10.4-0.4,15.6-0.4c5.2-0.1,10.4,0,15.5,0.1s9.8,0.3,14.1,0.7c1.6,0.2,2.4,0.8,2.4,1.8
		c0.1,1-0.7,1.5-2.4,1.5c-2.7,0-5.8,0.1-9.5,0.2c-3.7,0.2-7.5,0.4-11.6,0.6c-4.1,0.2-8.3,0.5-12.5,0.8s-8.3,0.7-12.2,1.1
		c-3.9,0.4-7.5,0.8-10.8,1.3s-6,1-8.1,1.6c-1.4,2.6-3,5.4-4.7,8.6c-1.7,3.2-3.2,6.5-4.7,10.1c-1.4,3.6-2.7,7.3-3.7,11.2
		s-1.6,7.8-1.7,11.8c0,3,0.6,5.5,1.8,7.5c1.2,2,2.8,3.5,4.7,4.7c1.9,1.1,4.1,1.8,6.5,2.2c2.4,0.3,4.7,0.4,7.1,0.2
		c3.3-0.2,7.2-0.8,11.6-1.7s8.9-2,13.7-3.4c4.8-1.4,9.6-3,14.5-5c4.9-1.9,9.4-4.1,13.6-6.6c1.2-0.7,1.9-0.6,2.1,0.2
		c0.2,0.8-0.1,1.4-0.9,1.8c-4,3.2-8.3,6-13,8.5c-4.7,2.4-9.5,4.5-14.3,6.1s-9.6,2.9-14.3,3.8c-4.7,0.9-9.1,1.3-13,1.3
		c-1.4,0-3.5-0.3-6.1-0.9c-2.6-0.6-5.2-1.7-7.9-3.2c-2.7-1.5-5-3.5-7.1-6.1s-3.3-5.9-3.7-9.9c-0.2-3,0-6.3,0.7-10.1
		c0.7-3.7,1.7-7.3,2.9-10.9c1.2-3.5,2.5-6.9,4-10.1c1.4-3.2,2.8-5.8,4.2-7.8c-0.9,0-1.8-0.1-2.8-0.2c-1-0.1-1.8-0.6-2.3-1.5
		c-0.3-0.2-0.7-0.6-1.2-1.1c-0.4-0.5-0.8-1.1-1.1-1.7c-0.3-0.6-0.4-1.2-0.4-1.7c0-0.7,0.3-1.3,0.8-1.8c0.4-0.4,1.2-0.8,2.2-1
		s2.1-0.4,3.3-0.6c1.2-0.2,2.4-0.3,3.6-0.5s2.2-0.4,3.1-0.6c5.3-8,10.9-15.9,16.6-23.9c5.8-7.9,11.7-15.6,18-23.2
		c-4.7,0-9.7,0.3-15.2,0.9s-11.1,1.6-16.7,2.8c-5.7,1.3-11.2,2.9-16.8,5c-5.5,2.1-10.7,4.5-15.5,7.4c-5.9,4-11,8.9-15.3,14.8
		c-4.3,5.9-6.8,12.7-7.3,20.6c-0.3,5.8,0.4,11.4,2.1,16.8c1.7,5.4,4.2,10.6,7.4,15.5c0.8,1.3,0.8,2.2,0.1,2.6
		c-0.7,0.4-1.5,0-2.4-1.2c-1.6-2.1-3-4.5-4.3-7.1S31,191,30,188.1c-1-2.9-1.8-6-2.5-9.1s-1-6.1-1-9.1c-0.3-8.6,1.5-16.1,5.6-22.4
		c4-6.3,10.2-12.2,18.4-17.8c5.3-3.4,10.8-6.3,16.4-8.5s11.4-4,17.4-5.2c6-1.3,12.2-2.2,18.7-2.8c6.5-0.6,13.3-1.1,20.5-1.6
		c1.1-1.2,2.1-2.2,3-3.1c0.9-0.8,1.8-1.6,2.8-2.4c0.7-0.4,1.2-0.4,1.5,0.1s0.7,1.2,1,2.1s0.8,1.7,1.5,2.5s1.7,1.2,3.2,1.2
		c8.2,0.1,15.7,0.6,22.5,1.3c6.8,0.8,12.9,1.6,18.4,2.5c2.4,0.8,3.7,2.3,3.7,4.5C181,121.6,180.5,122.4,179.2,122.6z"/>
	<path class="st0" d="M191.6,197c8.4-2.7,16.8-4.7,25.1-6.1l0.2,0.2c-7.8,1.6-15.7,4-23.9,7.2c-8.1,3.3-16.6,7.5-25.5,12.5
		c1.4,1.9,2.5,3.5,3.1,4.7c0.6,1.3,0.9,2.3,0.9,3.1c0,3.1-3.7,6.2-11,9.3c-6.2,2.8-11.2,4.2-15.1,4.2c-1.3,0-2.5-0.2-3.5-0.5
		c-1.6,0.2-2.8,0.4-3.7,0.7c-0.9,0.2-1.7,0.2-2.2,0c-1.4-0.1-1.8-0.8-1-2.2c1.9-2.3,9.4-8,22.4-17.1l-5.3-7.1
		c-1.2-1.6-2.1-3-2.7-4.5c-0.6-1.4-1-2.9-1.2-4.5c-0.9-7.4,6.6-15.8,22.6-25.1c8-4.8,15.5-8.3,22.5-10.6s13.7-3.4,19.9-3.2
		c0.7,0,1.3,0.3,1.8,1c0.4,1,0.4,1.7,0,2.2c-0.8,1.1-2,2.2-3.7,3.3s-3,1.6-3.7,1.3c-2.5-0.9-4.7-1.5-6.5-1.8s-3.3-0.5-4.5-0.5
		c-0.7,0-1.3,0-1.9,0.1c-0.6,0.1-1.2,0.1-1.7,0.2c-6.3,1.6-13.6,5.3-21.9,11.1c-10.5,7.2-15.4,13.5-14.6,18.9c0.3,2.2,1.6,5,3.7,8.5
		c2.3,3.3,4.2,5.4,5.7,6.1C174.5,203.5,183.1,199.6,191.6,197z M144,230.2c2,0.4,5.4-0.2,10.1-1.8c2.2-0.9,4.1-1.7,5.6-2.3
		c1.5-0.7,2.5-1.4,3.1-2.3c0.4-0.6,0.7-1.2,0.7-1.8c0-1.8-1.3-3.8-3.8-6.1c-1.8,1.1-4.5,3-8.1,5.7c-2.2,1.6-4,2.9-5.3,4
		s-2.3,2.1-2.8,3C142.5,229.4,142.7,230,144,230.2z"/>
	<path class="st0" d="M249.7,175.6c-3,2.2-6.7,3.7-11.1,4.7c2.5-1.9,5.3-4,8.1-6.5c2.9-2.4,5-4.6,6.3-6.5c1.1-1.8,1.7-3.3,1.8-4.7
		c0.1-1.3-0.2-2.4-0.8-3.1c-0.7-0.7-1.6-1.1-2.9-1c-1.3,0.1-2.7,0.5-4.4,1.4c-4.1,2.3-8.2,5.4-12.4,9.2s-8.1,7.8-11.9,12l-2,2.7
		c-2.6,3.4-5.2,7.5-7.8,12.1s-4.2,9.6-4.7,15c-0.1,2.4,0.1,4.4,0.7,6c0.6,1.6,1.4,2.7,2.5,3.6c1.1,0.8,2.3,1.4,3.7,1.7
		s2.8,0.4,4.2,0.2c3.7-0.4,7.6-1.4,11.7-3c4.2-1.6,7.8-3.2,10.9-5c0.9-0.6,1.5-0.6,1.9-0.2c0.4,0.4,0.1,0.9-0.7,1.4
		c-1.2,0.9-2.7,1.9-4.3,2.9c-1.7,1.1-3.5,2.1-5.5,3.1s-4,1.9-6.1,2.7s-4.2,1.4-6.3,1.7c-1.7,0.3-3.5,0.1-5.4-0.6
		c-1.9-0.7-3.8-1.8-5.5-3.2s-3.1-3.1-4.2-5.1c-1.1-2-1.6-4.1-1.5-6.3c0.2-4,1.1-8,2.6-12.1s3.4-8.1,5.7-12s5-7.6,7.9-11.1
		s6-6.6,9.1-9.5c3.1-2.8,6.2-5.2,9.3-7.1c3.1-1.9,6-3.4,8.6-4.2c2.1-0.7,4.1-0.7,6.1-0.2c1.9,0.6,3.5,1.5,4.7,2.8s1.7,3,1.7,5
		s-0.9,4-2.7,6.1C255.2,171.2,252.7,173.5,249.7,175.6z M238.4,180.4v-0.2c0.1,0,0.2-0.1,0.2-0.2
		C238.6,180.1,238.5,180.3,238.4,180.4z"/>
	<path class="st0" d="M240.6,225.2c-2.8,0-4.2-1.9-4.2-5.8c0-7.9,6.1-18,18.4-30.2c5.7-5.7,11-10.2,16-13.7s9.6-6.1,14-7.9
		c1-0.3,2.1-0.6,3.2-0.9c1.2-0.3,2.4-0.4,3.6-0.4c1.3,0,2.7,0.1,4,0.4c1.3,0.3,2.7,0.6,4,1.1c1.9,0.2,2.9,0.3,3.2,0.2
		c2-0.3,3.4-1.1,4.3-2.2c0.2-0.2,0.6-0.3,1-0.3s0.8,0.3,1.2,0.8c0.3,0.6,0.4,0.9,0.3,1.2c-3.2,5-6.4,9.9-9.6,14.7s-6.2,9.7-9.2,14.7
		c-2.3,3.9-4.6,8.3-6.8,13.4c-2.2,5-4.2,10.1-6.1,15.3s-3.4,10.1-4.7,14.7s-2.2,8.6-2.7,11.8c-0.1,0.6-0.2,1.1-0.2,1.5
		c0,0.6,0,1.1,0,1.7c0,3.8,1.2,6.6,3.5,8.4c2.3,1.8,5.5,2.7,9.5,2.7s7.9-0.7,11.8-2c5.9-2,13.5-6.8,22.9-14.3
		c4.5-3.7,8.6-7.4,12.2-11.3c3.6-3.9,6.7-7.5,9.4-11c1-1.1,1.7-1.7,2-1.7c0.1,0.1,0.2,0.3,0.2,0.5c0,0.4-0.2,1.1-0.7,1.8
		c-2.6,3.8-5.6,7.8-9.2,12S324,248.8,319,253c-4.7,3.8-8.8,6.9-12.5,9.3s-7.1,4.2-10.2,5.3c-1.6,0.6-3.1,1-4.7,1.2
		c-1.6,0.3-3.2,0.4-5,0.4c-2.7,0-5.1-0.4-7.3-1.2c-2.2-0.8-4.2-1.9-6-3.1c-2.1-1.2-3.6-3-4.4-5.2c-0.8-2.3-1.2-4.8-1.1-7.7
		c0.1-2.3,0.6-5.4,1.4-9.3c0.8-3.9,1.9-8,3.2-12.4s2.8-8.7,4.3-13c1.6-4.3,3.1-8.1,4.7-11.5c1.9-4,3.7-7.7,5.6-11.1
		c1.8-3.4,3.7-6.6,5.6-9.5c0.8-1.2,0.7-1.8-0.2-1.8c-0.1,0-0.3,0.1-0.5,0.3c-2.7,3.2-5.8,6.6-9.6,10.1c-3.7,3.5-8,7.4-12.9,11.6
		c-9.8,8.2-18.1,14.4-25.1,18.4C243,224.8,241.7,225.2,240.6,225.2z M246.4,213.6c0,2.7,1,4,3,4c0.8,0,1.6-0.3,2.5-0.8
		c6.2-3.9,12.7-9.1,19.6-15.7c6.9-6.6,14.2-14.6,22.1-24c0.3-0.3,0.5-0.7,0.5-1.2c0-1.2-0.7-2.4-2.2-3.4c-1.4-1.1-3.3-1.6-5.5-1.6
		c-1.2,0-2.5,0.2-3.8,0.5c-5.2,1.3-11.8,6.4-19.8,15.1c-3.8,4.2-7,8.3-9.6,12.1c-2.6,3.9-4.7,7.6-6.2,11.1
		C246.6,211,246.4,212.3,246.4,213.6z"/>
	<path class="st0" d="M307.9,189.1c1.6-6.3,3.7-12.6,6.5-19v-0.5c41-93,85-140.9,132-143.9c16.2-0.9,30.4,3.9,42.5,14.5
		c12.4,10.4,18.1,22.3,17,35.6c-0.6,4.3-1.8,8.4-3.7,12.3c-10.5,20.1-38.8,38.8-84.9,56.2c-15.8,6.1-31.9,11.4-48.1,16
		c-16.2,4.5-32.8,8.4-49.6,11.6c-1.9,5.2-3.5,10.7-4.7,16.4c-1.3,5.7-2,10.8-2.1,15.4c-0.2,5.2,0.5,9,2.2,11.3s3.9,3.7,6.5,4
		s5.4-0.1,8.5-1.4c3-1.3,5.9-2.9,8.6-4.9c1.4-1.1,2.7-2.2,3.9-3.4c1.2-1.2,2.4-2.4,3.6-3.7c0.9-0.9,1.5-1.2,1.9-1.1
		c0.4,0.2,0.1,0.9-0.7,2.1c-0.9,1.1-2,2.4-3.4,3.8c-1.4,1.4-2.7,2.7-3.9,3.8c-3.9,3.4-7.8,6-11.8,7.6c-4,1.7-7.6,2.3-10.8,1.8
		c-3.2-0.4-5.9-2-8-4.6s-3.2-6.5-3.3-11.7C305.7,201.4,306.4,195.3,307.9,189.1z M500.5,78.2c0.4-1.7,0.8-3.5,1-5.4
		c1.2-11.7-3.7-22.1-14.8-31.1c-11.1-9.3-24.5-13.7-40.4-13.1c-26.8,1.2-54,21.3-81.6,60.2c-8.4,11.6-16.2,23.9-23.3,36.6
		c-7.1,12.8-13.7,26.3-19.8,40.5h0.2c-0.2,0.6-0.4,1.1-0.7,1.7c-0.2,0.6-0.5,1.1-0.8,1.7c20.3-4.2,39.4-9,57.3-14.5
		c18-5.4,34.8-11.6,50.7-18.6c37.7-16.5,61.1-34.1,70.3-52.7C499.5,81.7,500.1,79.9,500.5,78.2z"/>
	<path class="st0" d="M344.3,225.2c-2.8,0-4.2-1.9-4.2-5.8c0-7.9,6.1-18,18.4-30.2c5.7-5.7,11-10.2,16-13.7s9.6-6.1,14-7.9
		c1-0.3,2.1-0.6,3.2-0.9c1.2-0.3,2.4-0.4,3.6-0.4c1.3,0,2.7,0.1,4,0.4c1.3,0.3,2.7,0.6,4,1.1c1.9,0.2,2.9,0.3,3.2,0.2
		c2-0.3,3.4-1.1,4.3-2.2c0.2-0.2,0.6-0.3,1-0.3s0.8,0.3,1.2,0.8c0.3,0.6,0.4,0.9,0.3,1.2c-3.2,5-6.4,9.9-9.6,14.7s-6.2,9.7-9.2,14.7
		c-2.3,3.9-4.6,8.3-6.8,13.4c-2.2,5-4.2,10.1-6.1,15.3s-3.4,10.1-4.7,14.7s-2.2,8.6-2.7,11.8c-0.1,0.6-0.2,1.1-0.2,1.5
		c0,0.6,0,1.1,0,1.7c0,3.8,1.2,6.6,3.5,8.4c2.3,1.8,5.5,2.7,9.5,2.7s7.9-0.7,11.8-2c5.9-2,13.5-6.8,22.9-14.3
		c4.5-3.7,8.6-7.4,12.2-11.3c3.6-3.9,6.7-7.5,9.4-11c1-1.1,1.7-1.7,2-1.7c0.1,0.1,0.2,0.3,0.2,0.5c0,0.4-0.2,1.1-0.7,1.8
		c-2.6,3.8-5.6,7.8-9.2,12s-7.9,8.4-12.9,12.6c-4.7,3.8-8.8,6.9-12.5,9.3s-7.1,4.2-10.2,5.3c-1.6,0.6-3.1,1-4.7,1.2
		c-1.6,0.3-3.2,0.4-5,0.4c-2.7,0-5.1-0.4-7.3-1.2c-2.2-0.8-4.2-1.9-6-3.1c-2.1-1.2-3.6-3-4.4-5.2c-0.8-2.3-1.2-4.8-1.1-7.7
		c0.1-2.3,0.6-5.4,1.4-9.3c0.8-3.9,1.9-8,3.2-12.4s2.8-8.7,4.3-13c1.6-4.3,3.1-8.1,4.7-11.5c1.9-4,3.7-7.7,5.6-11.1
		c1.8-3.4,3.7-6.6,5.6-9.5c0.8-1.2,0.7-1.8-0.2-1.8c-0.1,0-0.3,0.1-0.5,0.3c-2.7,3.2-5.8,6.6-9.6,10.1c-3.7,3.5-8,7.4-12.9,11.6
		c-9.8,8.2-18.1,14.4-25.1,18.4C346.7,224.8,345.4,225.2,344.3,225.2z M350.1,213.6c0,2.7,1,4,3,4c0.8,0,1.6-0.3,2.5-0.8
		c6.2-3.9,12.7-9.1,19.6-15.7c6.9-6.6,14.2-14.6,22.1-24c0.3-0.3,0.5-0.7,0.5-1.2c0-1.2-0.7-2.4-2.2-3.4c-1.4-1.1-3.3-1.6-5.5-1.6
		c-1.2,0-2.5,0.2-3.8,0.5c-5.2,1.3-11.8,6.4-19.8,15.1c-3.8,4.2-7,8.3-9.6,12.1c-2.6,3.9-4.7,7.6-6.2,11.1
		C350.3,211,350.1,212.3,350.1,213.6z"/>
</g>
<g id="borde2">
	<path class="st0" d="M38.5,318.2v-28.1h3.2L53,307.3l11.4-17.2h3.2v28.1h-3.5v-21.9L53,312.9l-11-16.6v21.9L38.5,318.2L38.5,318.2z
		"/>
	<path class="st0" d="M71.7,318.2l13.8-28.1h2.9l13.9,28.1h-3.8l-3.8-7.6H79.1l-3.7,7.6H71.7z M80.7,307.4h12.4L86.9,295L80.7,307.4
		z"/>
	<path class="st0" d="M106.4,318.2v-28.1h16.1c2.7,0,4.9,0.7,6.5,2.1c1.6,1.4,2.3,3.3,2.3,5.7c0,2-0.6,3.8-1.8,5.2s-2.8,2.4-4.8,2.7
		l7,12.3h-3.9l-7-12.3h-10.9v12.3L106.4,318.2L106.4,318.2z M109.8,302.6h12.4c1.8,0,3.1-0.4,4-1.2s1.4-1.9,1.4-3.4
		s-0.5-2.6-1.4-3.4s-2.2-1.2-3.8-1.2h-12.6V302.6z"/>
	<path class="st0" d="M137.7,318.2V290h3.5v28.2H137.7z"/>
	<path class="st0" d="M145.4,318.2l13.8-28.1h2.9l13.9,28.1h-3.8l-3.8-7.6h-15.5l-3.7,7.6H145.4z M154.5,307.4h12.4l-6.2-12.4
		L154.5,307.4z"/>
	<path class="st0" d="M202.6,309.3l2.8,2.1c-1.3,2.4-3.1,4.3-5.3,5.6c-2.2,1.3-4.8,2-7.6,2c-4.2,0-7.7-1.4-10.4-4.2
		c-2.7-2.8-4.1-6.3-4.1-10.5c0-4.3,1.4-7.8,4.1-10.6c2.7-2.8,6.2-4.2,10.4-4.2c2.6,0,5,0.6,7.1,1.7s3.9,2.8,5.2,4.9l-2.9,2.1
		c-0.9-1.7-2.2-3-3.8-3.9c-1.7-0.9-3.5-1.4-5.6-1.4c-3.2,0-5.8,1.1-7.8,3.2c-2.1,2.2-3.1,4.9-3.1,8.2c0,3.3,1,6,3.1,8.2
		s4.7,3.2,7.8,3.2c2.2,0,4.2-0.5,5.9-1.6C200.1,312.9,201.5,311.4,202.6,309.3z"/>
	<path class="st0" d="M211.7,318.2v-28.1h3.5v11.1h16.6v-11.1h3.5v28.1h-3.5v-13.8h-16.6v13.8H211.7z"/>
	<path class="st0" d="M243.8,318.2V290h3.5v28.2H243.8z"/>
	<path class="st0" d="M269.9,306.1h3.5v4.4c0,1.8,0.7,3.1,2,3.9s3.5,1.2,6.5,1.2c2.9,0,5-0.5,6-1.5c1.1-1,1.6-3,1.6-5.8v-18.2h3.5
		v19.1c0,3.5-0.9,5.9-2.7,7.4c-1.8,1.5-4.8,2.3-9.1,2.3c-3.8,0-6.7-0.7-8.6-2.1s-2.8-3.5-2.8-6.3v-4.4H269.9z"/>
	<path class="st0" d="M303.8,290.1v18.2c0,2.9,0.5,4.9,1.6,5.9s3.2,1.5,6.4,1.5c3.2,0,5.3-0.5,6.4-1.5s1.6-2.9,1.6-5.9v-18.2h3.5
		v19.1c0,3.5-0.9,5.9-2.7,7.4s-4.8,2.3-8.9,2.3s-7.1-0.8-8.9-2.3s-2.7-4-2.7-7.4v-19.1H303.8z"/>
	<path class="st0" d="M342.4,318.2h-2.2l-13.5-28.1h3.8l10.8,22.5l10.8-22.5h3.9L342.4,318.2z"/>
	<path class="st0" d="M359.8,318.2v-28.1h22.1v3.2h-18.6v8.2h11.2v3.2h-11.2V315H383v3.2H359.8z"/>
	<path class="st0" d="M388.3,318.2v-28.1h1.8l18.2,21v-21h3.5v28.1H410l-18.3-21v21H388.3z"/>
	<path class="st0" d="M420.2,318.2V290h3.5v28.2H420.2z"/>
	<path class="st0" d="M432.2,318.2v-28.1h3.5V315H454v3.2H432.2z"/>
</g>
<path id="borde" class="st0" d="M261,259.9l-67.7-3.4c0,0-0.8-15.9-21.2-6L159.7,238l-9.8,9.8l-8.7-9.4V238l-0.2,0.2l-0.2-0.2v0.4
	l-8.7,9.4l-9.8-9.8l-12.5,12.5c-20.4-9.8-21.2,6-21.2,6L21,259.9l68,2.3c-0.8,0.8,0.8,5.7,0.8,5.7c7.6,9.4,20,0,20,0l12.9,12.9
	l9.1-9.1l9.1,9.1v0.4l0.2-0.2l0.2,0.2v-0.4l9.1-9.1l9.1,9.1l12.9-12.9c0,0,12.5,9.4,20,0c0,0,1.5-4.9,0.8-5.7L261,259.9z
	 M160.4,242.1l9.8,9.1l-9.8,6l-6.8-7.6L160.4,242.1z M141.6,242.9l6.8,6.8l-6.4,6.4l-6.4-6.4L141.6,242.9z M122.7,242.1l6.8,7.6
	l-6.8,7.6l-9.8-6L122.7,242.1z M99.2,248.9c9.1,0.8,8.3,3.8,8.3,3.8l-3.8,3.8H90.9C90.9,256.5,90.2,248.2,99.2,248.9z M99.2,269.3
	c-9.1,0.8-8.3-7.6-8.3-7.6h12.9l3.8,3.8C107.6,265.5,108.3,268.6,99.2,269.3z M106,258.7l5.3-5.3l9.1,5.3l-9.1,6.8L106,258.7z
	 M122.7,275.4l-9.1-8.3l8.3-6l7.6,8.3L122.7,275.4z M131.4,265.9l-6.4-6.4l7.2-7.2l6.4,6.4L131.4,265.9z M141.9,275.8l-7.2-7.2
	l7.6-6.8l6.8,6.8L141.9,275.8z M144.6,258.7l6.4-6.4l7.2,7.2l-6.4,6.4L144.6,258.7z M160.4,275.4l-6.8-6l7.6-8.3l8.3,6L160.4,275.4z
	 M171.8,265.5l-9.1-6.8l9.1-5.3l5.3,5.3L171.8,265.5z M183.9,269.3c-9.1-0.8-8.3-3.8-8.3-3.8l3.8-3.8h12.9
	C192.2,261.8,193,270.1,183.9,269.3z M192.2,256.5h-12.9l-3.8-3.8c0,0-0.8-3,8.3-3.8C193,248.2,192.2,256.5,192.2,256.5z"/>
<g>
	<path class="st1" d="M179.2,122.6c-1.3,0.2-2.5,0-3.7-0.4c-2.4-0.4-5.6-0.9-9.6-1.4c-3.9-0.5-8.1-0.9-12.6-1.2
		c-4.5-0.3-9-0.6-13.6-0.8c-4.6-0.2-8.8-0.3-12.5-0.3c-6.8,6.6-13.3,14.1-19.7,22.4c-6.4,8.3-12.1,16.5-17.2,24.4
		c4.4-0.3,9.3-0.6,14.5-0.8s10.4-0.4,15.6-0.4c5.2-0.1,10.4,0,15.5,0.1s9.8,0.3,14.1,0.7c1.6,0.2,2.4,0.8,2.4,1.8
		c0.1,1-0.7,1.5-2.4,1.5c-2.7,0-5.8,0.1-9.5,0.2c-3.7,0.2-7.5,0.4-11.6,0.6c-4.1,0.2-8.3,0.5-12.5,0.8s-8.3,0.7-12.2,1.1
		c-3.9,0.4-7.5,0.8-10.8,1.3s-6,1-8.1,1.6c-1.4,2.6-3,5.4-4.7,8.6c-1.7,3.2-3.2,6.5-4.7,10.1c-1.4,3.6-2.7,7.3-3.7,11.2
		s-1.6,7.8-1.7,11.8c0,3,0.6,5.5,1.8,7.5c1.2,2,2.8,3.5,4.7,4.7c1.9,1.1,4.1,1.8,6.5,2.2c2.4,0.3,4.7,0.4,7.1,0.2
		c3.3-0.2,7.2-0.8,11.6-1.7s8.9-2,13.7-3.4c4.8-1.4,9.6-3,14.5-5c4.9-1.9,9.4-4.1,13.6-6.6c1.2-0.7,1.9-0.6,2.1,0.2
		c0.2,0.8-0.1,1.4-0.9,1.8c-4,3.2-8.3,6-13,8.5c-4.7,2.4-9.5,4.5-14.3,6.1s-9.6,2.9-14.3,3.8c-4.7,0.9-9.1,1.3-13,1.3
		c-1.4,0-3.5-0.3-6.1-0.9c-2.6-0.6-5.2-1.7-7.9-3.2c-2.7-1.5-5-3.5-7.1-6.1s-3.3-5.9-3.7-9.9c-0.2-3,0-6.3,0.7-10.1
		c0.7-3.7,1.7-7.3,2.9-10.9c1.2-3.5,2.5-6.9,4-10.1c1.4-3.2,2.8-5.8,4.2-7.8c-0.9,0-1.8-0.1-2.8-0.2c-1-0.1-1.8-0.6-2.3-1.5
		c-0.3-0.2-0.7-0.6-1.2-1.1c-0.4-0.5-0.8-1.1-1.1-1.7c-0.3-0.6-0.4-1.2-0.4-1.7c0-0.7,0.3-1.3,0.8-1.8c0.4-0.4,1.2-0.8,2.2-1
		s2.1-0.4,3.3-0.6c1.2-0.2,2.4-0.3,3.6-0.5s2.2-0.4,3.1-0.6c5.3-8,10.9-15.9,16.6-23.9c5.8-7.9,11.7-15.6,18-23.2
		c-4.7,0-9.7,0.3-15.2,0.9s-11.1,1.6-16.7,2.8c-5.7,1.3-11.2,2.9-16.8,5c-5.5,2.1-10.7,4.5-15.5,7.4c-5.9,4-11,8.9-15.3,14.8
		c-4.3,5.9-6.8,12.7-7.3,20.6c-0.3,5.8,0.4,11.4,2.1,16.8c1.7,5.4,4.2,10.6,7.4,15.5c0.8,1.3,0.8,2.2,0.1,2.6
		c-0.7,0.4-1.5,0-2.4-1.2c-1.6-2.1-3-4.5-4.3-7.1S31,191,30,188.1c-1-2.9-1.8-6-2.5-9.1s-1-6.1-1-9.1c-0.3-8.6,1.5-16.1,5.6-22.4
		c4-6.3,10.2-12.2,18.4-17.8c5.3-3.4,10.8-6.3,16.4-8.5s11.4-4,17.4-5.2c6-1.3,12.2-2.2,18.7-2.8c6.5-0.6,13.3-1.1,20.5-1.6
		c1.1-1.2,2.1-2.2,3-3.1c0.9-0.8,1.8-1.6,2.8-2.4c0.7-0.4,1.2-0.4,1.5,0.1s0.7,1.2,1,2.1s0.8,1.7,1.5,2.5s1.7,1.2,3.2,1.2
		c8.2,0.1,15.7,0.6,22.5,1.3c6.8,0.8,12.9,1.6,18.4,2.5c2.4,0.8,3.7,2.3,3.7,4.5C181,121.6,180.5,122.4,179.2,122.6z"/>
	<path class="st1" d="M191.6,197c8.4-2.7,16.8-4.7,25.1-6.1l0.2,0.2c-7.8,1.6-15.7,4-23.9,7.2c-8.1,3.3-16.6,7.5-25.5,12.5
		c1.4,1.9,2.5,3.5,3.1,4.7c0.6,1.3,0.9,2.3,0.9,3.1c0,3.1-3.7,6.2-11,9.3c-6.2,2.8-11.2,4.2-15.1,4.2c-1.3,0-2.5-0.2-3.5-0.5
		c-1.6,0.2-2.8,0.4-3.7,0.7c-0.9,0.2-1.7,0.2-2.2,0c-1.4-0.1-1.8-0.8-1-2.2c1.9-2.3,9.4-8,22.4-17.1l-5.3-7.1
		c-1.2-1.6-2.1-3-2.7-4.5c-0.6-1.4-1-2.9-1.2-4.5c-0.9-7.4,6.6-15.8,22.6-25.1c8-4.8,15.5-8.3,22.5-10.6s13.7-3.4,19.9-3.2
		c0.7,0,1.3,0.3,1.8,1c0.4,1,0.4,1.7,0,2.2c-0.8,1.1-2,2.2-3.7,3.3s-3,1.6-3.7,1.3c-2.5-0.9-4.7-1.5-6.5-1.8s-3.3-0.5-4.5-0.5
		c-0.7,0-1.3,0-1.9,0.1c-0.6,0.1-1.2,0.1-1.7,0.2c-6.3,1.6-13.6,5.3-21.9,11.1c-10.5,7.2-15.4,13.5-14.6,18.9c0.3,2.2,1.6,5,3.7,8.5
		c2.3,3.3,4.2,5.4,5.7,6.1C174.5,203.5,183.1,199.6,191.6,197z M144,230.2c2,0.4,5.4-0.2,10.1-1.8c2.2-0.9,4.1-1.7,5.6-2.3
		c1.5-0.7,2.5-1.4,3.1-2.3c0.4-0.6,0.7-1.2,0.7-1.8c0-1.8-1.3-3.8-3.8-6.1c-1.8,1.1-4.5,3-8.1,5.7c-2.2,1.6-4,2.9-5.3,4
		s-2.3,2.1-2.8,3C142.5,229.4,142.7,230,144,230.2z"/>
	<path class="st1" d="M249.7,175.6c-3,2.2-6.7,3.7-11.1,4.7c2.5-1.9,5.3-4,8.1-6.5c2.9-2.4,5-4.6,6.3-6.5c1.1-1.8,1.7-3.3,1.8-4.7
		c0.1-1.3-0.2-2.4-0.8-3.1c-0.7-0.7-1.6-1.1-2.9-1c-1.3,0.1-2.7,0.5-4.4,1.4c-4.1,2.3-8.2,5.4-12.4,9.2s-8.1,7.8-11.9,12l-2,2.7
		c-2.6,3.4-5.2,7.5-7.8,12.1s-4.2,9.6-4.7,15c-0.1,2.4,0.1,4.4,0.7,6c0.6,1.6,1.4,2.7,2.5,3.6c1.1,0.8,2.3,1.4,3.7,1.7
		s2.8,0.4,4.2,0.2c3.7-0.4,7.6-1.4,11.7-3c4.2-1.6,7.8-3.2,10.9-5c0.9-0.6,1.5-0.6,1.9-0.2c0.4,0.4,0.1,0.9-0.7,1.4
		c-1.2,0.9-2.7,1.9-4.3,2.9c-1.7,1.1-3.5,2.1-5.5,3.1s-4,1.9-6.1,2.7s-4.2,1.4-6.3,1.7c-1.7,0.3-3.5,0.1-5.4-0.6
		c-1.9-0.7-3.8-1.8-5.5-3.2s-3.1-3.1-4.2-5.1c-1.1-2-1.6-4.1-1.5-6.3c0.2-4,1.1-8,2.6-12.1s3.4-8.1,5.7-12s5-7.6,7.9-11.1
		s6-6.6,9.1-9.5c3.1-2.8,6.2-5.2,9.3-7.1c3.1-1.9,6-3.4,8.6-4.2c2.1-0.7,4.1-0.7,6.1-0.2c1.9,0.6,3.5,1.5,4.7,2.8s1.7,3,1.7,5
		s-0.9,4-2.7,6.1C255.2,171.2,252.7,173.5,249.7,175.6z M238.4,180.4v-0.2c0.1,0,0.2-0.1,0.2-0.2
		C238.6,180.1,238.5,180.3,238.4,180.4z"/>
	<path class="st1" d="M240.6,225.2c-2.8,0-4.2-1.9-4.2-5.8c0-7.9,6.1-18,18.4-30.2c5.7-5.7,11-10.2,16-13.7s9.6-6.1,14-7.9
		c1-0.3,2.1-0.6,3.2-0.9c1.2-0.3,2.4-0.4,3.6-0.4c1.3,0,2.7,0.1,4,0.4c1.3,0.3,2.7,0.6,4,1.1c1.9,0.2,2.9,0.3,3.2,0.2
		c2-0.3,3.4-1.1,4.3-2.2c0.2-0.2,0.6-0.3,1-0.3s0.8,0.3,1.2,0.8c0.3,0.6,0.4,0.9,0.3,1.2c-3.2,5-6.4,9.9-9.6,14.7s-6.2,9.7-9.2,14.7
		c-2.3,3.9-4.6,8.3-6.8,13.4c-2.2,5-4.2,10.1-6.1,15.3s-3.4,10.1-4.7,14.7s-2.2,8.6-2.7,11.8c-0.1,0.6-0.2,1.1-0.2,1.5
		c0,0.6,0,1.1,0,1.7c0,3.8,1.2,6.6,3.5,8.4c2.3,1.8,5.5,2.7,9.5,2.7s7.9-0.7,11.8-2c5.9-2,13.5-6.8,22.9-14.3
		c4.5-3.7,8.6-7.4,12.2-11.3c3.6-3.9,6.7-7.5,9.4-11c1-1.1,1.7-1.7,2-1.7c0.1,0.1,0.2,0.3,0.2,0.5c0,0.4-0.2,1.1-0.7,1.8
		c-2.6,3.8-5.6,7.8-9.2,12S324,248.8,319,253c-4.7,3.8-8.8,6.9-12.5,9.3s-7.1,4.2-10.2,5.3c-1.6,0.6-3.1,1-4.7,1.2
		c-1.6,0.3-3.2,0.4-5,0.4c-2.7,0-5.1-0.4-7.3-1.2c-2.2-0.8-4.2-1.9-6-3.1c-2.1-1.2-3.6-3-4.4-5.2c-0.8-2.3-1.2-4.8-1.1-7.7
		c0.1-2.3,0.6-5.4,1.4-9.3c0.8-3.9,1.9-8,3.2-12.4s2.8-8.7,4.3-13c1.6-4.3,3.1-8.1,4.7-11.5c1.9-4,3.7-7.7,5.6-11.1
		c1.8-3.4,3.7-6.6,5.6-9.5c0.8-1.2,0.7-1.8-0.2-1.8c-0.1,0-0.3,0.1-0.5,0.3c-2.7,3.2-5.8,6.6-9.6,10.1c-3.7,3.5-8,7.4-12.9,11.6
		c-9.8,8.2-18.1,14.4-25.1,18.4C243,224.8,241.7,225.2,240.6,225.2z M246.4,213.6c0,2.7,1,4,3,4c0.8,0,1.6-0.3,2.5-0.8
		c6.2-3.9,12.7-9.1,19.6-15.7c6.9-6.6,14.2-14.6,22.1-24c0.3-0.3,0.5-0.7,0.5-1.2c0-1.2-0.7-2.4-2.2-3.4c-1.4-1.1-3.3-1.6-5.5-1.6
		c-1.2,0-2.5,0.2-3.8,0.5c-5.2,1.3-11.8,6.4-19.8,15.1c-3.8,4.2-7,8.3-9.6,12.1c-2.6,3.9-4.7,7.6-6.2,11.1
		C246.6,211,246.4,212.3,246.4,213.6z"/>
	<path class="st1" d="M307.9,189.1c1.6-6.3,3.7-12.6,6.5-19v-0.5c41-93,85-140.9,132-143.9c16.2-0.9,30.4,3.9,42.5,14.5
		c12.4,10.4,18.1,22.3,17,35.6c-0.6,4.3-1.8,8.4-3.7,12.3c-10.5,20.1-38.8,38.8-84.9,56.2c-15.8,6.1-31.9,11.4-48.1,16
		c-16.2,4.5-32.8,8.4-49.6,11.6c-1.9,5.2-3.5,10.7-4.7,16.4c-1.3,5.7-2,10.8-2.1,15.4c-0.2,5.2,0.5,9,2.2,11.3s3.9,3.7,6.5,4
		s5.4-0.1,8.5-1.4c3-1.3,5.9-2.9,8.6-4.9c1.4-1.1,2.7-2.2,3.9-3.4c1.2-1.2,2.4-2.4,3.6-3.7c0.9-0.9,1.5-1.2,1.9-1.1
		c0.4,0.2,0.1,0.9-0.7,2.1c-0.9,1.1-2,2.4-3.4,3.8c-1.4,1.4-2.7,2.7-3.9,3.8c-3.9,3.4-7.8,6-11.8,7.6c-4,1.7-7.6,2.3-10.8,1.8
		c-3.2-0.4-5.9-2-8-4.6s-3.2-6.5-3.3-11.7C305.7,201.4,306.4,195.3,307.9,189.1z M500.5,78.2c0.4-1.7,0.8-3.5,1-5.4
		c1.2-11.7-3.7-22.1-14.8-31.1c-11.1-9.3-24.5-13.7-40.4-13.1c-26.8,1.2-54,21.3-81.6,60.2c-8.4,11.6-16.2,23.9-23.3,36.6
		c-7.1,12.8-13.7,26.3-19.8,40.5h0.2c-0.2,0.6-0.4,1.1-0.7,1.7c-0.2,0.6-0.5,1.1-0.8,1.7c20.3-4.2,39.4-9,57.3-14.5
		c18-5.4,34.8-11.6,50.7-18.6c37.7-16.5,61.1-34.1,70.3-52.7C499.5,81.7,500.1,79.9,500.5,78.2z"/>
	<path class="st1" d="M344.3,225.2c-2.8,0-4.2-1.9-4.2-5.8c0-7.9,6.1-18,18.4-30.2c5.7-5.7,11-10.2,16-13.7s9.6-6.1,14-7.9
		c1-0.3,2.1-0.6,3.2-0.9c1.2-0.3,2.4-0.4,3.6-0.4c1.3,0,2.7,0.1,4,0.4c1.3,0.3,2.7,0.6,4,1.1c1.9,0.2,2.9,0.3,3.2,0.2
		c2-0.3,3.4-1.1,4.3-2.2c0.2-0.2,0.6-0.3,1-0.3s0.8,0.3,1.2,0.8c0.3,0.6,0.4,0.9,0.3,1.2c-3.2,5-6.4,9.9-9.6,14.7s-6.2,9.7-9.2,14.7
		c-2.3,3.9-4.6,8.3-6.8,13.4c-2.2,5-4.2,10.1-6.1,15.3s-3.4,10.1-4.7,14.7s-2.2,8.6-2.7,11.8c-0.1,0.6-0.2,1.1-0.2,1.5
		c0,0.6,0,1.1,0,1.7c0,3.8,1.2,6.6,3.5,8.4c2.3,1.8,5.5,2.7,9.5,2.7s7.9-0.7,11.8-2c5.9-2,13.5-6.8,22.9-14.3
		c4.5-3.7,8.6-7.4,12.2-11.3c3.6-3.9,6.7-7.5,9.4-11c1-1.1,1.7-1.7,2-1.7c0.1,0.1,0.2,0.3,0.2,0.5c0,0.4-0.2,1.1-0.7,1.8
		c-2.6,3.8-5.6,7.8-9.2,12s-7.9,8.4-12.9,12.6c-4.7,3.8-8.8,6.9-12.5,9.3s-7.1,4.2-10.2,5.3c-1.6,0.6-3.1,1-4.7,1.2
		c-1.6,0.3-3.2,0.4-5,0.4c-2.7,0-5.1-0.4-7.3-1.2c-2.2-0.8-4.2-1.9-6-3.1c-2.1-1.2-3.6-3-4.4-5.2c-0.8-2.3-1.2-4.8-1.1-7.7
		c0.1-2.3,0.6-5.4,1.4-9.3c0.8-3.9,1.9-8,3.2-12.4s2.8-8.7,4.3-13c1.6-4.3,3.1-8.1,4.7-11.5c1.9-4,3.7-7.7,5.6-11.1
		c1.8-3.4,3.7-6.6,5.6-9.5c0.8-1.2,0.7-1.8-0.2-1.8c-0.1,0-0.3,0.1-0.5,0.3c-2.7,3.2-5.8,6.6-9.6,10.1c-3.7,3.5-8,7.4-12.9,11.6
		c-9.8,8.2-18.1,14.4-25.1,18.4C346.7,224.8,345.4,225.2,344.3,225.2z M350.1,213.6c0,2.7,1,4,3,4c0.8,0,1.6-0.3,2.5-0.8
		c6.2-3.9,12.7-9.1,19.6-15.7c6.9-6.6,14.2-14.6,22.1-24c0.3-0.3,0.5-0.7,0.5-1.2c0-1.2-0.7-2.4-2.2-3.4c-1.4-1.1-3.3-1.6-5.5-1.6
		c-1.2,0-2.5,0.2-3.8,0.5c-5.2,1.3-11.8,6.4-19.8,15.1c-3.8,4.2-7,8.3-9.6,12.1c-2.6,3.9-4.7,7.6-6.2,11.1
		C350.3,211,350.1,212.3,350.1,213.6z"/>
</g>
<g>
	<path class="st1" d="M38.5,318.2v-28.1h3.2L53,307.3l11.4-17.2h3.2v28.1h-3.5v-21.9L53,312.9l-11-16.6v21.9L38.5,318.2L38.5,318.2z
		"/>
	<path class="st1" d="M71.7,318.2l13.8-28.1h2.9l13.9,28.1h-3.8l-3.8-7.6H79.1l-3.7,7.6H71.7z M80.7,307.4h12.4L86.9,295L80.7,307.4
		z"/>
	<path class="st1" d="M106.4,318.2v-28.1h16.1c2.7,0,4.9,0.7,6.5,2.1c1.6,1.4,2.3,3.3,2.3,5.7c0,2-0.6,3.8-1.8,5.2s-2.8,2.4-4.8,2.7
		l7,12.3h-3.9l-7-12.3h-10.9v12.3L106.4,318.2L106.4,318.2z M109.8,302.6h12.4c1.8,0,3.1-0.4,4-1.2s1.4-1.9,1.4-3.4
		s-0.5-2.6-1.4-3.4s-2.2-1.2-3.8-1.2h-12.6V302.6z"/>
	<path class="st1" d="M137.7,318.2V290h3.5v28.2H137.7z"/>
	<path class="st1" d="M145.4,318.2l13.8-28.1h2.9l13.9,28.1h-3.8l-3.8-7.6h-15.5l-3.7,7.6H145.4z M154.5,307.4h12.4l-6.2-12.4
		L154.5,307.4z"/>
	<path class="st1" d="M202.6,309.3l2.8,2.1c-1.3,2.4-3.1,4.3-5.3,5.6c-2.2,1.3-4.8,2-7.6,2c-4.2,0-7.7-1.4-10.4-4.2
		c-2.7-2.8-4.1-6.3-4.1-10.5c0-4.3,1.4-7.8,4.1-10.6c2.7-2.8,6.2-4.2,10.4-4.2c2.6,0,5,0.6,7.1,1.7s3.9,2.8,5.2,4.9l-2.9,2.1
		c-0.9-1.7-2.2-3-3.8-3.9c-1.7-0.9-3.5-1.4-5.6-1.4c-3.2,0-5.8,1.1-7.8,3.2c-2.1,2.2-3.1,4.9-3.1,8.2c0,3.3,1,6,3.1,8.2
		s4.7,3.2,7.8,3.2c2.2,0,4.2-0.5,5.9-1.6C200.1,312.9,201.5,311.4,202.6,309.3z"/>
	<path class="st1" d="M211.7,318.2v-28.1h3.5v11.1h16.6v-11.1h3.5v28.1h-3.5v-13.8h-16.6v13.8H211.7z"/>
	<path class="st1" d="M243.8,318.2V290h3.5v28.2H243.8z"/>
	<path class="st1" d="M269.9,306.1h3.5v4.4c0,1.8,0.7,3.1,2,3.9s3.5,1.2,6.5,1.2c2.9,0,5-0.5,6-1.5c1.1-1,1.6-3,1.6-5.8v-18.2h3.5
		v19.1c0,3.5-0.9,5.9-2.7,7.4c-1.8,1.5-4.8,2.3-9.1,2.3c-3.8,0-6.7-0.7-8.6-2.1s-2.8-3.5-2.8-6.3v-4.4H269.9z"/>
	<path class="st1" d="M303.8,290.1v18.2c0,2.9,0.5,4.9,1.6,5.9s3.2,1.5,6.4,1.5c3.2,0,5.3-0.5,6.4-1.5s1.6-2.9,1.6-5.9v-18.2h3.5
		v19.1c0,3.5-0.9,5.9-2.7,7.4s-4.8,2.3-8.9,2.3s-7.1-0.8-8.9-2.3s-2.7-4-2.7-7.4v-19.1H303.8z"/>
	<path class="st1" d="M342.4,318.2h-2.2l-13.5-28.1h3.8l10.8,22.5l10.8-22.5h3.9L342.4,318.2z"/>
	<path class="st1" d="M359.8,318.2v-28.1h22.1v3.2h-18.6v8.2h11.2v3.2h-11.2V315H383v3.2H359.8z"/>
	<path class="st1" d="M388.3,318.2v-28.1h1.8l18.2,21v-21h3.5v28.1H410l-18.3-21v21H388.3z"/>
	<path class="st1" d="M420.2,318.2V290h3.5v28.2H420.2z"/>
	<path class="st1" d="M432.2,318.2v-28.1h3.5V315H454v3.2H432.2z"/>
</g>
<path class="st1" d="M261,259.9l-67.7-3.4c0,0-0.8-15.9-21.2-6L159.7,238l-9.8,9.8l-8.7-9.4V238l-0.2,0.2l-0.2-0.2v0.4l-8.7,9.4
	l-9.8-9.8l-12.5,12.5c-20.4-9.8-21.2,6-21.2,6L21,259.9l68,2.3c-0.8,0.8,0.8,5.7,0.8,5.7c7.6,9.4,20,0,20,0l12.9,12.9l9.1-9.1
	l9.1,9.1v0.4l0.2-0.2l0.2,0.2v-0.4l9.1-9.1l9.1,9.1l12.9-12.9c0,0,12.5,9.4,20,0c0,0,1.5-4.9,0.8-5.7L261,259.9z M160.4,242.1
	l9.8,9.1l-9.8,6l-6.8-7.6L160.4,242.1z M141.6,242.9l6.8,6.8l-6.4,6.4l-6.4-6.4L141.6,242.9z M122.7,242.1l6.8,7.6l-6.8,7.6l-9.8-6
	L122.7,242.1z M99.2,248.9c9.1,0.8,8.3,3.8,8.3,3.8l-3.8,3.8H90.9C90.9,256.5,90.2,248.2,99.2,248.9z M99.2,269.3
	c-9.1,0.8-8.3-7.6-8.3-7.6h12.9l3.8,3.8C107.6,265.5,108.3,268.6,99.2,269.3z M106,258.7l5.3-5.3l9.1,5.3l-9.1,6.8L106,258.7z
	 M122.7,275.4l-9.1-8.3l8.3-6l7.6,8.3L122.7,275.4z M131.4,265.9l-6.4-6.4l7.2-7.2l6.4,6.4L131.4,265.9z M141.9,275.8l-7.2-7.2
	l7.6-6.8l6.8,6.8L141.9,275.8z M144.6,258.7l6.4-6.4l7.2,7.2l-6.4,6.4L144.6,258.7z M160.4,275.4l-6.8-6l7.6-8.3l8.3,6L160.4,275.4z
	 M171.8,265.5l-9.1-6.8l9.1-5.3l5.3,5.3L171.8,265.5z M183.9,269.3c-9.1-0.8-8.3-3.8-8.3-3.8l3.8-3.8h12.9
	C192.2,261.8,193,270.1,183.9,269.3z M192.2,256.5h-12.9l-3.8-3.8c0,0-0.8-3,8.3-3.8C193,248.2,192.2,256.5,192.2,256.5z"/>
</svg>
