<?xml version="1.0" encoding="utf-8"?>
<!-- Generator: Adobe Illustrator 21.0.0, SVG Export Plug-In . SVG Version: 6.00 Build 0)  -->
<svg version="1.1" id="Layer_1" focusable="false" xmlns="http://www.w3.org/2000/svg" xmlns:xlink="http://www.w3.org/1999/xlink"
	 x="0px" y="0px" viewBox="0 0 512 512" style="enable-background:new 0 0 512 512;" xml:space="preserve">
<style type="text/css">
	.st0{fill:url(#SVGID_1_);}
</style>
<linearGradient id="SVGID_1_" gradientUnits="userSpaceOnUse" x1="47.59" y1="464.46" x2="487.8401" y2="24.21">
	<stop  offset="0" style="stop-color:#F8E53F"/>
	<stop  offset="0.2005" style="stop-color:#F2D57E"/>
	<stop  offset="0.4381" style="stop-color:#A57E5B"/>
	<stop  offset="0.6015" style="stop-color:#F8E53F"/>
	<stop  offset="0.7153" style="stop-color:#F2D57E"/>
	<stop  offset="1" style="stop-color:#F2D57E"/>
</linearGradient>
<path class="st0" d="M502.6,39L473,9.4c-12.5-12.5-32.8-12.5-45.3,0c0,0,0,0,0,0l-46.3,46.3c-3.9,3.9-6.8,8.6-8.5,13.8L360.8,106
	l-76.3,76.3c-12.2-8.8-25.5-15.7-40.1-19.1c-33.4-7.8-67-0.9-89.9,22c-9.3,9.4-16.3,20.9-20.2,33.5c-6,18.6-23.2,32.7-42.2,34.5
	c-23.7,2.3-45.7,11.5-62.6,28.4C-16.1,327-7.9,409,47.6,464.5s137.4,63.5,183,18.1c17-16.9,26.2-38.9,28.5-62.7
	c1.8-18.9,15.9-36.1,34.4-42.1c12.6-4,24.1-10.9,33.5-20.3c22.9-22.9,29.7-56.4,22-89.8c-3.4-14.6-10.4-28-19.2-40.2l76.2-76.2
	l36.5-12.2c5.2-1.7,9.9-4.7,13.8-8.5l46.3-46.3C515.1,71.7,515.1,51.5,502.6,39L502.6,39z M208,352c-26.5,0-48-21.5-48-48
	s21.5-48,48-48s48,21.5,48,48S234.5,352,208,352z"/>
</svg>
